<svg xmlns="http://www.w3.org/2000/svg" viewBox="0 0 64 64" role="img" aria-label="Beautysalon icon">
  <rect width="64" height="64" rx="18" fill="#241918"/>
  <path d="M42.7 18.7c4.5 4.2 4.3 11.8-.5 16.9L30.9 47.5 19.7 35.6c-4.8-5.1-5-12.7-.5-16.9 4.1-3.9 10.5-3.4 14.1 1.2 3.7-4.6 10.1-5.1 14.2-1.2z" fill="#fff8f1"/>
  <path d="M32 22.2c4.9 5.6 5 13.4.4 19.3l-1.5 1.9-1.6-1.9c-4.6-5.9-4.4-13.7.5-19.3L31 20.9l1 1.3z" fill="#b66a63"/>
  <path d="M26.8 18.2c-4.8 5.1-5.9 11.5-3.3 18.1" fill="none" stroke="#f4e7db" stroke-width="2.5" stroke-linecap="round"/>
</svg>
